<svg width="34" height="32" viewBox="0 0 34 32" fill="none" xmlns="http://www.w3.org/2000/svg">
<path d="M4.16667 15C3 15 2.01389 14.5972 1.20833 13.7917C0.402778 12.9861 0 12 0 10.8333C0 9.66667 0.402778 8.68056 1.20833 7.875C2.01389 7.06944 3 6.66667 4.16667 6.66667C5.33333 6.66667 6.31944 7.06944 7.125 7.875C7.93056 8.68056 8.33333 9.66667 8.33333 10.8333C8.33333 12 7.93056 12.9861 7.125 13.7917C6.31944 14.5972 5.33333 15 4.16667 15ZM11.6667 8.33333C10.5 8.33333 9.51389 7.93056 8.70833 7.125C7.90278 6.31944 7.5 5.33333 7.5 4.16667C7.5 3 7.90278 2.01389 8.70833 1.20833C9.51389 0.402778 10.5 0 11.6667 0C12.8333 0 13.8194 0.402778 14.625 1.20833C15.4306 2.01389 15.8333 3 15.8333 4.16667C15.8333 5.33333 15.4306 6.31944 14.625 7.125C13.8194 7.93056 12.8333 8.33333 11.6667 8.33333ZM21.6667 8.33333C20.5 8.33333 19.5139 7.93056 18.7083 7.125C17.9028 6.31944 17.5 5.33333 17.5 4.16667C17.5 3 17.9028 2.01389 18.7083 1.20833C19.5139 0.402778 20.5 0 21.6667 0C22.8333 0 23.8194 0.402778 24.625 1.20833C25.4306 2.01389 25.8333 3 25.8333 4.16667C25.8333 5.33333 25.4306 6.31944 24.625 7.125C23.8194 7.93056 22.8333 8.33333 21.6667 8.33333ZM29.1667 15C28 15 27.0139 14.5972 26.2083 13.7917C25.4028 12.9861 25 12 25 10.8333C25 9.66667 25.4028 8.68056 26.2083 7.875C27.0139 7.06944 28 6.66667 29.1667 6.66667C30.3333 6.66667 31.3194 7.06944 32.125 7.875C32.9306 8.68056 33.3333 9.66667 33.3333 10.8333C33.3333 12 32.9306 12.9861 32.125 13.7917C31.3194 14.5972 30.3333 15 29.1667 15ZM7.75 31.6667C6.5 31.6667 5.45139 31.1875 4.60417 30.2292C3.75694 29.2708 3.33333 28.1389 3.33333 26.8333C3.33333 25.3889 3.82639 24.125 4.8125 23.0417C5.79861 21.9583 6.77778 20.8889 7.75 19.8333C8.55556 18.9722 9.25 18.0347 9.83333 17.0208C10.4167 16.0069 11.1111 15.0556 11.9167 14.1667C12.5278 13.4444 13.2361 12.8472 14.0417 12.375C14.8472 11.9028 15.7222 11.6667 16.6667 11.6667C17.6111 11.6667 18.4861 11.8889 19.2917 12.3333C20.0972 12.7778 20.8056 13.3611 21.4167 14.0833C22.1944 14.9722 22.8819 15.9306 23.4792 16.9583C24.0764 17.9861 24.7778 18.9444 25.5833 19.8333C26.5556 20.8889 27.5347 21.9583 28.5208 23.0417C29.5069 24.125 30 25.3889 30 26.8333C30 28.1389 29.5764 29.2708 28.7292 30.2292C27.8819 31.1875 26.8333 31.6667 25.5833 31.6667C24.0833 31.6667 22.5972 31.5417 21.125 31.2917C19.6528 31.0417 18.1667 30.9167 16.6667 30.9167C15.1667 30.9167 13.6806 31.0417 12.2083 31.2917C10.7361 31.5417 9.25 31.6667 7.75 31.6667Z" fill="#AFCDC4" fill-opacity="0.25"/>
</svg>
